<?xml version="1.0" encoding="iso-8859-1"?>
<!-- Generator: Adobe Illustrator 19.0.0, SVG Export Plug-In . SVG Version: 6.00 Build 0)  -->
<svg version="1.1" id="Layer_1" xmlns="http://www.w3.org/2000/svg" xmlns:xlink="http://www.w3.org/1999/xlink" x="0px" y="0px"
	 viewBox="0 0 508.609 508.609" style="enable-background:new 0 0 508.609 508.609;" xml:space="preserve">
<path style="fill:#F1F3F7;" d="M254.305,0L254.305,0c-70.527,0-127.83,57.303-127.83,127.83V376.71
	c0,70.527,57.303-27.804,127.83-27.804l0,0c70.527,0,127.83,98.331,127.83,27.804V127.83C382.135,57.303,324.832,0,254.305,0z"/>
<path style="fill:#DEDEDF;" d="M335.343,294.315H173.266c-73.918,0-134.273,60.016-134.273,133.934v80.36h430.623v-80.36
	C469.616,354.331,409.261,294.315,335.343,294.315z"/>
<circle style="fill:#EEB490;" cx="254.305" cy="278.04" r="60.016"/>
<path style="fill:#C19D7B;" d="M386.882,456.053H314.66c-3.73,0-6.781-3.052-6.781-6.781s3.052-6.781,6.781-6.781h71.883
	c3.73,0,6.781,3.052,6.781,6.781C393.664,453.001,390.612,456.053,386.882,456.053z"/>
<path style="fill:#C19D7B;" d="M260.408,378.066c-3.73,0-6.781-3.052-6.781-6.781v-2.374c0-3.73,3.052-6.781,6.781-6.781
	s6.781,3.052,6.781,6.781v2.374C267.189,375.015,264.138,378.066,260.408,378.066z"/>
<path style="fill:#C19D7B;" d="M260.408,432.318c-3.73,0-6.781-3.052-6.781-6.781v-2.374c0-3.73,3.052-6.781,6.781-6.781
	s6.781,3.052,6.781,6.781v2.374C267.189,429.266,264.138,432.318,260.408,432.318z"/>
<path style="fill:#C19D7B;" d="M260.408,486.57c-3.73,0-6.781-3.052-6.781-6.781v-2.374c0-3.73,3.052-6.781,6.781-6.781
	s6.781,3.052,6.781,6.781v2.374C267.189,483.518,264.138,486.57,260.408,486.57z"/>
<path style="fill:#3C3851;" d="M397.393,101.044H111.216c-3.73,0-6.781-3.052-6.781-6.781c0-3.73,3.052-6.781,6.781-6.781h286.517
	c3.73,0,6.781,3.052,6.781,6.781C404.514,97.992,401.123,101.044,397.393,101.044z"/>
<path style="fill:#3C3851;" d="M397.393,79.682H111.216c-3.73,0-6.781-3.052-6.781-6.781c0-3.73,3.052-6.781,6.781-6.781h286.517
	c3.73,0,6.781,3.052,6.781,6.781C404.514,76.63,401.123,79.682,397.393,79.682z"/>
<g>
	<path style="fill:#F1F3F7;" d="M218.024,122.066c0,0-53.913,6.442-53.913,51.878s0,315.677,0,315.677l0,0
		c-20.683,0-37.298-16.615-37.298-37.298V127.83l37.298-25.091L218.024,122.066z"/>
	<path style="fill:#F1F3F7;" d="M290.585,122.066c0,0,53.913,6.442,53.913,51.878s0,315.677,0,315.677l0,0
		c20.683,0,37.298-16.615,37.298-37.298V127.83l-37.298-25.091L290.585,122.066z"/>
</g>
<path style="fill:#FACCB4;" d="M290.585,122.066L290.585,122.066l-36.281,20.683l-36.281-20.683c0,0-53.913,6.442-53.913,51.878
	v37.298c0,49.844,40.35,90.532,90.532,90.532c49.844,0,90.532-40.35,90.532-90.532v-37.298
	C344.837,128.509,290.585,122.066,290.585,122.066z"/>
<g>
</g>
<g>
</g>
<g>
</g>
<g>
</g>
<g>
</g>
<g>
</g>
<g>
</g>
<g>
</g>
<g>
</g>
<g>
</g>
<g>
</g>
<g>
</g>
<g>
</g>
<g>
</g>
<g>
</g>
</svg>
